<svg width="31" height="32" viewBox="0 0 31 32" fill="none" xmlns="http://www.w3.org/2000/svg">
<path d="M29.8929 20.0661L27.5536 18.0661C27.6643 17.3875 27.7214 16.6946 27.7214 16.0018C27.7214 15.3089 27.6643 14.6161 27.5536 13.9375L29.8929 11.9375C30.0693 11.7865 30.1956 11.5853 30.2549 11.3607C30.3143 11.1361 30.3038 10.8988 30.225 10.6804L30.1929 10.5875C29.5489 8.78759 28.5845 7.11905 27.3464 5.6625L27.2822 5.5875C27.132 5.4109 26.9318 5.28395 26.708 5.22338C26.4842 5.16282 26.2473 5.17147 26.0286 5.24821L23.125 6.28036C22.0536 5.40179 20.8571 4.70893 19.5643 4.22321L19.0036 1.1875C18.9613 0.959079 18.8505 0.748937 18.6859 0.584992C18.5213 0.421047 18.3107 0.31106 18.0821 0.269643L17.9857 0.251786C16.125 -0.0839286 14.1679 -0.0839286 12.3071 0.251786L12.2107 0.269643C11.9821 0.31106 11.7716 0.421047 11.607 0.584992C11.4424 0.748937 11.3316 0.959079 11.2893 1.1875L10.725 4.2375C9.44247 4.72332 8.2481 5.41581 7.18929 6.2875L4.26429 5.24821C4.0456 5.17086 3.80855 5.1619 3.58463 5.2225C3.36072 5.2831 3.16055 5.41041 3.01072 5.5875L2.94644 5.6625C1.70982 7.12009 0.745636 8.78835 0.100007 10.5875L0.0678643 10.6804C-0.09285 11.1268 0.039293 11.6268 0.400007 11.9375L2.76786 13.9589C2.65715 14.6304 2.60358 15.3161 2.60358 15.9982C2.60358 16.6839 2.65715 17.3696 2.76786 18.0375L0.400007 20.0589C0.223563 20.21 0.0972803 20.4112 0.03795 20.6357C-0.0213802 20.8603 -0.0109464 21.0976 0.0678643 21.3161L0.100007 21.4089C0.746436 23.2089 1.70358 24.8696 2.94644 26.3339L3.01072 26.4089C3.16092 26.5855 3.36109 26.7125 3.58487 26.773C3.80865 26.8336 4.04553 26.825 4.26429 26.7482L7.18929 25.7089C8.25358 26.5839 9.44286 27.2768 10.725 27.7589L11.2893 30.8089C11.3316 31.0374 11.4424 31.2475 11.607 31.4114C11.7716 31.5754 11.9821 31.6854 12.2107 31.7268L12.3071 31.7446C14.185 32.0822 16.1079 32.0822 17.9857 31.7446L18.0821 31.7268C18.3107 31.6854 18.5213 31.5754 18.6859 31.4114C18.8505 31.2475 18.9613 31.0374 19.0036 30.8089L19.5643 27.7732C20.8566 27.2888 22.0598 26.5937 23.125 25.7161L26.0286 26.7482C26.2473 26.8256 26.4843 26.8345 26.7082 26.7739C26.9322 26.7133 27.1323 26.586 27.2822 26.4089L27.3464 26.3339C28.5893 24.8661 29.5464 23.2089 30.1929 21.4089L30.225 21.3161C30.3857 20.8768 30.2536 20.3768 29.8929 20.0661ZM25.0179 14.3589C25.1072 14.8982 25.1536 15.4518 25.1536 16.0054C25.1536 16.5589 25.1072 17.1125 25.0179 17.6518L24.7822 19.0839L27.45 21.3661C27.0456 22.2978 26.5351 23.1798 25.9286 23.9946L22.6143 22.8196L21.4929 23.7411C20.6393 24.4411 19.6893 24.9911 18.6607 25.3768L17.3 25.8875L16.6607 29.3518C15.652 29.4661 14.6337 29.4661 13.625 29.3518L12.9857 25.8804L11.6357 25.3625C10.6179 24.9768 9.67144 24.4268 8.82501 23.7304L7.70358 22.8054L4.36786 23.9911C3.76072 23.1732 3.25358 22.2911 2.84644 21.3625L5.54286 19.0589L5.31072 17.6304C5.22501 17.0982 5.17858 16.5482 5.17858 16.0054C5.17858 15.4589 5.22144 14.9125 5.31072 14.3804L5.54286 12.9518L2.84644 10.6482C3.25001 9.71607 3.76072 8.8375 4.36786 8.01964L7.70358 9.20536L8.82501 8.28036C9.67144 7.58393 10.6179 7.03393 11.6357 6.64821L12.9893 6.1375L13.6286 2.66607C14.6322 2.55179 15.6572 2.55179 16.6643 2.66607L17.3036 6.13036L18.6643 6.64107C19.6893 7.02679 20.6429 7.57679 21.4964 8.27679L22.6179 9.19821L25.9322 8.02321C26.5393 8.84107 27.0464 9.72322 27.4536 10.6518L24.7857 12.9339L25.0179 14.3589ZM15.15 9.3625C11.6786 9.3625 8.86429 12.1768 8.86429 15.6482C8.86429 19.1196 11.6786 21.9339 15.15 21.9339C18.6214 21.9339 21.4357 19.1196 21.4357 15.6482C21.4357 12.1768 18.6214 9.3625 15.15 9.3625ZM17.9786 18.4768C17.6076 18.8488 17.1667 19.1439 16.6813 19.3449C16.1958 19.546 15.6754 19.649 15.15 19.6482C14.0822 19.6482 13.0786 19.2304 12.3214 18.4768C11.9494 18.1058 11.6543 17.6649 11.4533 17.1795C11.2523 16.694 11.1492 16.1736 11.15 15.6482C11.15 14.5804 11.5679 13.5768 12.3214 12.8196C13.0786 12.0625 14.0822 11.6482 15.15 11.6482C16.2179 11.6482 17.2214 12.0625 17.9786 12.8196C18.3506 13.1906 18.6457 13.6315 18.8467 14.117C19.0478 14.6024 19.1508 15.1228 19.15 15.6482C19.15 16.7161 18.7322 17.7196 17.9786 18.4768Z" fill="black"/>
</svg>
